<svg width="85" height="85" viewBox="0 0 85 85" fill="none" xmlns="http://www.w3.org/2000/svg">
<path d="M70.8333 7.08334H14.1667C10.2547 7.08334 7.08334 10.2547 7.08334 14.1667V28.3333C7.08334 32.2454 10.2547 35.4167 14.1667 35.4167H70.8333C74.7454 35.4167 77.9167 32.2454 77.9167 28.3333V14.1667C77.9167 10.2547 74.7454 7.08334 70.8333 7.08334Z" stroke="#647ACB" stroke-width="2" stroke-linecap="round" stroke-linejoin="round"/>
<path d="M70.8333 49.5833H14.1667C10.2547 49.5833 7.08334 52.7546 7.08334 56.6666V70.8333C7.08334 74.7453 10.2547 77.9167 14.1667 77.9167H70.8333C74.7454 77.9167 77.9167 74.7453 77.9167 70.8333V56.6666C77.9167 52.7546 74.7454 49.5833 70.8333 49.5833Z" stroke="#647ACB" stroke-width="2" stroke-linecap="round" stroke-linejoin="round"/>
<path d="M21.25 21.25H21.2854" stroke="#647ACB" stroke-width="2" stroke-linecap="round" stroke-linejoin="round"/>
<path d="M21.25 63.75H21.2854" stroke="#647ACB" stroke-width="2" stroke-linecap="round" stroke-linejoin="round"/>
</svg>
