<svg width="85" height="85" viewBox="0 0 85 85" fill="none" xmlns="http://www.w3.org/2000/svg">
<path d="M63.75 74.375C69.618 74.375 74.375 69.618 74.375 63.75C74.375 57.882 69.618 53.125 63.75 53.125C57.882 53.125 53.125 57.882 53.125 63.75C53.125 69.618 57.882 74.375 63.75 74.375Z" stroke="#647ACB" stroke-width="2" stroke-linecap="round" stroke-linejoin="round"/>
<path d="M21.25 31.875C27.118 31.875 31.875 27.118 31.875 21.25C31.875 15.382 27.118 10.625 21.25 10.625C15.382 10.625 10.625 15.382 10.625 21.25C10.625 27.118 15.382 31.875 21.25 31.875Z" stroke="#647ACB" stroke-width="2" stroke-linecap="round" stroke-linejoin="round"/>
<path d="M46.0417 21.25H56.6667C58.5453 21.25 60.3469 21.9963 61.6753 23.3247C63.0037 24.653 63.75 26.4547 63.75 28.3333V53.125" stroke="#647ACB" stroke-width="2" stroke-linecap="round" stroke-linejoin="round"/>
<path d="M21.25 31.875V74.375" stroke="#647ACB" stroke-width="2" stroke-linecap="round" stroke-linejoin="round"/>
</svg>
