<svg width="85" height="85" viewBox="0 0 85 85" fill="none" xmlns="http://www.w3.org/2000/svg">
<path d="M42.5 42.5C42.5 53.8447 33.303 63.0417 21.9583 63.0417C10.6137 63.0417 1.41666 53.8447 1.41666 42.5C1.41666 31.1554 10.6137 21.9584 21.9583 21.9584C26.1842 21.9584 30.1141 23.2348 33.3795 25.4235C34.5072 26.1786 35.5555 27.0428 36.5103 28.0019" stroke="#647ACB" stroke-width="2" stroke-miterlimit="10" stroke-linecap="round"/>
<path d="M42.5 42.5C42.5 31.1554 51.697 21.9584 63.0417 21.9584C74.3863 21.9584 83.5833 31.1554 83.5833 42.5C83.5833 53.8447 74.3863 63.0417 63.0417 63.0417C57.3708 63.0417 52.2368 60.7439 48.5194 57.028" stroke="#647ACB" stroke-width="2" stroke-miterlimit="10" stroke-linecap="round"/>
</svg>
