<svg width="86" height="61" viewBox="0 0 86 61" fill="none" xmlns="http://www.w3.org/2000/svg">
<path d="M1 13.5988V55C1 57.7614 3.23858 60 6 60H80C82.7614 60 85 57.7614 85 55V13.5988M1 13.5988V6C1 3.23858 3.23858 1 6 1H80C82.7614 1 85 3.23858 85 6V13.5988M1 13.5988H85M13.3532 8.9639H13.662C14.6853 8.9639 15.5149 8.13843 15.5149 7.12015C15.5149 6.10188 14.6853 5.2764 13.662 5.2764H13.3532C12.3298 5.2764 11.5002 6.10188 11.5002 7.12015C11.5002 8.13843 12.3298 8.9639 13.3532 8.9639ZM20.1473 8.98939H20.4561C21.4795 8.98939 22.309 8.16392 22.309 7.14564C22.309 6.12737 21.4795 5.30189 20.4561 5.30189H20.1473C19.1239 5.30189 18.2943 6.12737 18.2943 7.14564C18.2943 8.16392 19.1239 8.98939 20.1473 8.98939ZM8.41199 7.14564V7.14564C8.41199 8.16392 7.58651 8.98939 6.56824 8.98939H6.24103C5.22276 8.98939 4.39728 8.16392 4.39728 7.14564V7.14564C4.39728 6.12737 5.22276 5.30189 6.24104 5.30189H6.56824C7.58651 5.30189 8.41199 6.12737 8.41199 7.14564Z" stroke="#647ACB" stroke-width="2"/>
</svg>
