<svg width="46" height="46" viewBox="0 0 46 46" fill="none" xmlns="http://www.w3.org/2000/svg">
<g filter="url(#filter0_d)">
<path fill-rule="evenodd" clip-rule="evenodd" d="M22.943 0.910416C12.7083 0.910416 4.40692 9.21342 4.40692 19.4481C4.40692 27.6363 9.75067 34.5729 17.03 37.0745C17.9389 37.1885 18.2809 36.6201 18.2809 36.1641V32.9816C13.1628 34.1185 12.0251 30.48 12.0251 30.48C11.2295 28.3187 9.97788 27.7487 9.97788 27.7487C8.27263 26.6127 10.0919 26.6127 10.0919 26.6127C11.9111 26.7267 12.934 28.5459 12.934 28.5459C14.6408 31.388 17.2565 30.5932 18.2801 30.1372C18.3925 28.8863 18.9609 28.0907 19.4161 27.6355C15.3232 27.1811 11.0007 25.589 11.0007 18.4245C11.0007 16.378 11.6831 14.786 12.934 13.4211C12.7068 12.9659 12.1383 11.0327 13.162 8.531C13.162 8.531 14.7532 8.07658 18.2793 10.4643C19.7565 10.0098 21.3486 9.89583 22.9406 9.89583C24.5319 9.89583 26.1247 10.1223 27.6035 10.4635C31.1288 8.07579 32.7209 8.53021 32.7209 8.53021C33.7445 11.0319 33.0613 12.9651 32.9481 13.4203C34.1988 14.7855 34.8886 16.5722 34.8798 18.4237C34.8798 25.5883 30.5588 27.0671 26.4643 27.5215C27.1475 28.0899 27.7152 29.2275 27.7152 30.9336V36.0509C27.7152 36.5053 28.0572 37.0738 28.966 36.9613C36.3586 34.4597 41.5899 27.5215 41.5899 19.3341C41.4767 9.21263 33.1745 0.911999 22.9398 0.911999L22.943 0.910416Z" fill="#191717"/>
</g>
<defs>
<filter id="filter0_d" x="0" y="0" width="46" height="46" filterUnits="userSpaceOnUse" color-interpolation-filters="sRGB">
<feFlood flood-opacity="0" result="BackgroundImageFix"/>
<feColorMatrix in="SourceAlpha" type="matrix" values="0 0 0 0 0 0 0 0 0 0 0 0 0 0 0 0 0 0 127 0"/>
<feOffset dy="4"/>
<feGaussianBlur stdDeviation="2"/>
<feColorMatrix type="matrix" values="0 0 0 0 0 0 0 0 0 0 0 0 0 0 0 0 0 0 0.25 0"/>
<feBlend mode="normal" in2="BackgroundImageFix" result="effect1_dropShadow"/>
<feBlend mode="normal" in="SourceGraphic" in2="effect1_dropShadow" result="shape"/>
</filter>
</defs>
</svg>
