<svg width="37" height="37" viewBox="0 0 37 37" fill="none" xmlns="http://www.w3.org/2000/svg">
<path fill-rule="evenodd" clip-rule="evenodd" d="M28.3504 26.7385V19.7463C28.3504 16 26.3504 14.2567 23.6842 14.2567C21.5325 14.2567 20.5684 15.4406 20.031 16.271V14.5433H15.9773C16.031 15.6878 15.9773 26.7385 15.9773 26.7385H20.031V19.9278C20.031 19.5642 20.0573 19.2 20.1648 18.9397C20.4573 18.2113 21.1242 17.4573 22.2436 17.4573C23.711 17.4573 24.2973 18.5755 24.2973 20.2143V26.7391H28.3504V26.7385ZM11.7069 12.8788C13.12 12.8788 14.0006 11.9415 14.0006 10.7707C13.9743 9.57493 13.12 8.66448 11.7337 8.66448C10.3475 8.66448 9.4406 9.57433 9.4406 10.7707C9.4406 11.9415 10.3206 12.8788 11.6812 12.8788H11.7069ZM18.2985 36.209C8.40716 36.209 0.388062 28.1898 0.388062 18.2985C0.388062 8.40657 8.40716 0.388062 18.2985 0.388062C28.1898 0.388062 36.209 8.40657 36.209 18.2985C36.209 28.1898 28.1898 36.209 18.2985 36.209ZM13.7337 26.7385V14.5433H9.6806V26.7385H13.7337Z" fill="#2867B2"/>
</svg>
